HIERARCHY
ROOT pelvis
{
  OFFSET 0 100 0
  CHANNELS 6 Xposition Yposition Zposition Zrotation Xrotation Yrotation
  JOINT pelvis_right_femur
  {
    OFFSET -10.78128 -3.44521 -0.5502486
    CHANNELS 3 Zrotation Xrotation Yrotation
    JOINT right_femur_tibia
    {
      OFFSET -0.8047443 -44.0398 -0.1307829
      CHANNELS 3 Zrotation Xrotation Yrotation
      JOINT right_tibia_foot
      {
        OFFSET 3.006224 -47.83518 -5
        CHANNELS 3 Zrotation Xrotation Yrotation
        End Site
        {
          OFFSET 0 -5 15
        }
      }
    }
  }
  JOINT pelvis_left_femur
  {
    OFFSET 10.78128 -3.44521 -0.5502486
    CHANNELS 3 Zrotation Xrotation Yrotation
    JOINT left_femur_tibia
    {
      OFFSET 0.8047443 -44.0398 -0.1307829
      CHANNELS 3 Zrotation Xrotation Yrotation
      JOINT left_tibia_foot
      {
        OFFSET -4.370144 -48.10324 -4.275266
        CHANNELS 3 Zrotation Xrotation Yrotation
        End Site
        {
          OFFSET 0 -5 15
        }
      }
    }
  }
  JOINT pelvis_spine1
  {
    OFFSET 0 6.468898 -3.129235
    CHANNELS 3 Zrotation Xrotation Yrotation
    JOINT spine1
    {
      OFFSET 0 23.15396 4.99043
      CHANNELS 3 Zrotation Xrotation Yrotation
      JOINT spine2
      {
        OFFSET 0 20.79997 -5.064912
        CHANNELS 3 Zrotation Xrotation Yrotation
        JOINT neck
        {
          OFFSET 0 14.38658 9.616178
          CHANNELS 3 Zrotation Xrotation Yrotation
          End Site
          {
            OFFSET 0 20 0
          }
        }
      }
      JOINT right_manubrium
      {
        OFFSET -5.722621 16.35077 3.967754
        CHANNELS 3 Zrotation Xrotation Yrotation
        JOINT right_clavicle
        {
          OFFSET -13.16364 1.694482 -4.693211
          CHANNELS 3 Zrotation Xrotation Yrotation
          JOINT right_humerus
          {
            OFFSET -28.5034 -0.3100689 -2.792744
            CHANNELS 3 Zrotation Xrotation Yrotation
            JOINT right_radius
            {
              OFFSET -25.15693 0.02248979 -1.271978
              CHANNELS 3 Zrotation Xrotation Yrotation
              End Site
              {
                OFFSET -15 0 0
              }
            }
          }
        }
      }
      JOINT left_manubrium
      {
        OFFSET 5.722621 16.35077 3.967754
        CHANNELS 3 Zrotation Xrotation Yrotation
        JOINT left_clavicle
        {
          OFFSET 13.16364 1.694482 -4.693211
          CHANNELS 3 Zrotation Xrotation Yrotation
          JOINT left_humerus
          {
            OFFSET 29.39168 -1.063119 -2.237045
            CHANNELS 3 Zrotation Xrotation Yrotation
            JOINT left_radius
            {
              OFFSET 24.59957 -0.9528479 0.9047498
              CHANNELS 3 Zrotation Xrotation Yrotation
              End Site
              {
                OFFSET 15 -0 -0
              }
            }
          }
        }
      }
    }
  }
}
MOTION
Frames: 9
Frame Time: 0.0416666666667
0 103.5113 0 2.332119 -0.8050364 0.2219636 3.191356 -14.09787 11.63979 -0 37.42626 -0 -3.526654 -16.89674 -3.46952 -8.496047 9.686975 -22.10993 -0 3.692089 -0 20.69235 -8.895786 29.79044 -3.356402 -3.054649 4.659512 3.174161 10.36123 -7.582689 1.561537 21.23649 6.677918 2.501731 -26.71674 10.48629 5.701919 -20.29136 11.67588 86.68462 38.33838 -18.80497 -0 0 14.38386 -6.890033 8.508092 5.309068 5.656774 -19.72776 -1.814515 -91.60221 22.2199 20.36417 0 0 -18.5546 14.56389 12.87749 -2.431067
0.5165096 103.43 1.735811 1.700052 0.3779182 0.3218213 4.395408 -17.53849 12.49354 -0 36.93623 -0 -3.705514 -16.61391 -3.786663 -8.228277 9.781547 -21.87168 -0 4.139423 -0 20.31246 -10.32048 30.02413 -3.524422 -3.013365 4.629521 3.254547 10.29989 -7.582926 1.456405 21.21105 6.901044 2.488882 -26.93237 10.68527 5.623689 -20.50766 11.78409 86.85303 38.92914 -18.80038 -0 0 14.22612 -6.682714 8.356167 5.578266 5.541494 -19.64093 -1.918963 -91.12688 22.08419 20.1707 0 0 -19.79663 15.10051 12.23101 -2.839075
0.9451255 103.265 3.553191 1.288645 0.3648009 0.4205651 4.597885 -19.31989 11.12587 -0 35.60673 -0 -4.367234 -15.59338 -3.486366 -7.799436 10.44527 -21.87944 -0 4.659705 -0 17.35687 -12.63592 29.04378 -3.369928 -2.837807 4.492092 3.478385 10.26916 -7.655774 1.39354 21.24795 6.891523 2.361322 -26.98246 10.65888 5.611299 -20.15783 11.8599 86.94247 38.68503 -19.12953 -0 0 13.54068 -6.541588 8.315023 5.723432 5.146736 -19.48219 -2.079496 -90.9666 22.2584 20.16928 0 0 -19.86127 14.55782 11.81724 -2.146294
1.321751 103.069 5.527843 0.8116317 0.8568332 0.4845916 5.253781 -21.95127 10.70786 -0 34.01061 -0 -4.70469 -14.49234 -3.319502 -7.436645 10.86234 -21.57829 -0 5.105948 -0 15.95298 -14.24673 28.45499 -3.179382 -2.599057 4.348147 3.516239 10.22737 -7.639726 1.400378 21.32601 6.830013 2.337913 -26.63989 10.50981 5.670063 -19.64247 11.85851 86.89664 38.3983 -19.19607 -0 0 12.90118 -6.69749 8.488872 5.822709 5.023072 -19.43662 -2.133641 -90.66005 22.167 19.72761 0 0 -19.68441 14.20405 11.78814 -1.824913
1.652439 102.8059 7.714934 0.3414581 1.324468 0.5436288 5.874103 -24.68955 10.11545 -0 31.92433 -0 -5.038474 -13.07106 -3.049235 -7.047975 11.36929 -21.15627 -0 5.610685 -0 14.42833 -15.87582 27.62318 -2.985333 -2.399396 4.221226 3.560014 10.20618 -7.642194 1.416483 21.39657 6.724362 2.302492 -26.32305 10.32865 5.729194 -19.15297 11.84762 86.82736 37.98794 -19.28023 -0 0 12.35623 -6.879549 8.643378 5.889896 4.893645 -19.3962 -2.183663 -90.48499 22.14214 19.40392 0 0 -19.29567 13.69982 11.83317 -1.358609
1.950056 102.4806 10.17682 -0.119701 1.903191 0.6200595 6.575448 -27.53546 9.707706 -0 29.56206 -0 -5.301557 -11.50591 -2.758599 -6.67839 11.89164 -20.58774 -0 6.229376 -0 13.2813 -17.20301 26.74874 -2.824389 -2.23657 4.124827 3.572058 10.19427 -7.63487 1.438655 21.45808 6.620582 2.2835 -26.019 10.15378 5.787637 -18.74431 11.82988 86.74023 37.6151 -19.30769 -0 0 11.95082 -7.082234 8.787736 5.944649 4.81559 -19.37467 -2.211369 -90.35967 22.10943 19.12317 0 0 -18.89554 13.25666 11.92757 -0.9638869
2.220452 102.0975 12.97677 -0.5683211 2.518753 0.7384384 7.281597 -30.29757 9.318563 -0 26.95335 -0 -5.563005 -9.808255 -2.433377 -6.306721 12.48969 -19.8945 -0 7.089453 -0 12.14032 -18.32387 25.66424 -2.695055 -2.116174 4.053223 3.587844 10.19198 -7.637152 1.454101 21.50342 6.525361 2.263026 -25.78721 9.999 5.834115 -18.42672 11.81762 86.66257 37.27249 -19.3387 -0 0 11.65399 -7.2586 8.892037 5.991679 4.741158 -19.35708 -2.238956 -90.29621 22.11237 18.9426 0 0 -18.52634 12.82813 12.00715 -0.5676776
2.468508 101.6805 16.1754 -1.00134 3.145349 0.9190405 7.978886 -32.74794 8.973163 -0 24.27975 -0 -5.845174 -8.111521 -2.098734 -5.933811 13.14077 -19.0842 -0 8.355381 -0 10.96433 -19.10446 24.33505 -2.593622 -2.027617 4.000666 3.604229 10.19454 -7.644519 1.463538 21.53599 6.443872 2.244226 -25.61258 9.866744 5.870964 -18.18397 11.81016 86.59622 36.97573 -19.36932 -0 0 11.43942 -7.407954 8.966701 6.032865 4.674915 -19.34393 -2.264992 -90.26804 22.13536 18.82891 0 0 -18.21239 12.43978 12.07 -0.1989601
2.697056 101.2706 19.82682 -1.422616 3.723213 1.171528 8.628782 -34.61789 8.624186 -0 21.71821 -0 -6.186832 -6.545304 -1.774436 -5.546431 13.79928 -18.16161 -0 10.25656 -0 9.592892 -19.43825 22.67279 -2.513209 -1.963535 3.960572 3.626042 10.19995 -7.658831 1.466563 21.55795 6.374301 2.224726 -25.48862 9.753356 5.899427 -17.99784 11.80787 86.54302 36.71375 -19.4094 -0 0 11.28043 -7.530015 9.015872 6.069607 4.609533 -19.33298 -2.292984 -90.26532 22.1793 18.7694 0 0 -17.95065 12.07676 12.11241 0.1569974
